<svg width="89" height="28" viewBox="0 0 89 28" fill="none" xmlns="http://www.w3.org/2000/svg">
<path d="M25.438 9.88468C26.2059 7.50687 25.744 2.76316 24.2561 1.01187C24.0611 0.782148 23.6981 0.814966 23.5362 1.06856L21.7033 3.9297C21.2503 4.50252 20.4344 4.63379 19.8195 4.23401C17.8306 2.93919 15.4548 2.18736 12.902 2.18736C10.3493 2.18736 7.97345 2.93919 5.98461 4.23401C5.37267 4.63379 4.55673 4.49954 4.10077 3.9297L2.26792 1.06856C2.10594 0.814966 1.74297 0.785131 1.54798 1.01187C0.0601055 2.76615 -0.401856 7.50985 0.36608 9.88468C0.621059 10.6753 0.690053 11.5107 0.540066 12.3222C0.390078 13.1277 0.240091 14.1003 0.240091 14.7776C0.240091 21.732 5.90962 27.3678 12.899 27.3678C19.8915 27.3678 25.558 21.729 25.558 14.7776C25.558 14.1003 25.408 13.1277 25.258 12.3222C25.111 11.5107 25.183 10.6753 25.438 9.88468ZM12.899 24.5573C7.49349 24.5573 3.09885 20.1836 3.09885 14.8074C3.09885 14.6314 3.10485 14.4583 3.11385 14.2853C3.30884 10.6216 5.54665 7.49195 8.71139 6.00022C9.98028 5.39756 11.4022 5.06341 12.902 5.06341C14.4019 5.06341 15.8208 5.39756 17.0927 6.0032C20.2574 7.49493 22.4952 10.6276 22.6902 14.2883C22.6992 14.4613 22.7052 14.6373 22.7052 14.8104C22.7022 20.1836 18.3046 24.5573 12.899 24.5573Z" fill="#16A9C9"/>
<path d="M17.1469 18.5606L14.6421 14.2406L12.4943 10.6396C12.4433 10.553 12.3503 10.5023 12.2513 10.5023H10.1995C10.0975 10.5023 10.0045 10.556 9.9535 10.6455C9.9025 10.732 9.9055 10.8395 9.9565 10.926L12.0113 14.3599L9.25456 18.5427C9.19756 18.6293 9.19456 18.7396 9.24256 18.8292C9.29055 18.9187 9.38655 18.9753 9.49154 18.9753H11.5584C11.6544 18.9753 11.7444 18.9276 11.7953 18.8471L13.2862 16.5319L14.6241 18.8381C14.6751 18.9246 14.7681 18.9783 14.8671 18.9783H16.9039C17.0059 18.9783 17.0989 18.9246 17.1469 18.8381C17.1979 18.7546 17.1979 18.6472 17.1469 18.5606Z" fill="#16A9C9"/>
<path d="M37.233 7.56958H39.8458V21.8186H37.233V15.7472H34.2812V21.8216H31.6685V7.56958H34.2812V13.7573H37.233V7.56958Z" fill="black"/>
<path d="M47.9062 21.8216L47.3603 18.862H44.2256L43.7246 21.8216H41.1118L43.9946 7.57263H47.5133L50.534 21.8216H47.9062ZM44.5675 16.8959H46.9973L45.7494 10.0758L44.5675 16.8959Z" fill="black"/>
<path d="M56.3537 19.223V16.1739C56.3537 15.9323 56.3087 15.7712 56.2187 15.6876C56.1287 15.6041 55.9607 15.5623 55.7177 15.5623H53.8789C52.319 15.5623 51.5391 14.8105 51.5391 13.3039V9.80724C51.5391 8.31551 52.355 7.57263 53.9899 7.57263H56.4887C58.1235 7.57263 58.9395 8.3185 58.9395 9.80724V11.7942H56.3057V10.1682C56.3057 9.92658 56.2607 9.76547 56.1707 9.68194C56.0807 9.5984 55.9127 9.55663 55.6697 9.55663H54.8058C54.5478 9.55663 54.3738 9.5984 54.2838 9.68194C54.1938 9.76547 54.1488 9.92658 54.1488 10.1682V13.0353C54.1488 13.277 54.1938 13.4381 54.2838 13.5216C54.3738 13.6052 54.5478 13.647 54.8058 13.647H56.5996C58.1895 13.647 58.9845 14.3839 58.9845 15.8607V19.587C58.9845 21.0788 58.1595 21.8216 56.5097 21.8216H54.0559C52.406 21.8216 51.5811 21.0758 51.5811 19.587V17.6209H54.1908V19.223C54.1908 19.4647 54.2358 19.6258 54.3258 19.7093C54.4158 19.7929 54.5898 19.8347 54.8478 19.8347H55.7117C55.9547 19.8347 56.1197 19.7929 56.2127 19.7093C56.3057 19.6258 56.3537 19.4647 56.3537 19.223Z" fill="black"/>
<path d="M65.9557 7.56958H68.5655V19.584C68.5655 21.0757 67.7406 21.8186 66.0907 21.8186H63.322C61.6721 21.8186 60.8472 21.0727 60.8472 19.584V7.56958H63.46V19.223C63.46 19.4646 63.5049 19.6257 63.5949 19.7093C63.6849 19.7928 63.8529 19.8346 64.0959 19.8346H65.2988C65.5568 19.8346 65.7308 19.7928 65.8208 19.7093C65.9107 19.6257 65.9557 19.4646 65.9557 19.223V7.56958Z" fill="black"/>
<path d="M73.3354 16.2664V21.8216H70.7256V7.56958H75.9931C77.643 7.56958 78.4679 8.31544 78.4679 9.80419V14.0288C78.4679 15.2639 77.916 15.9859 76.8091 16.1977L79.1939 21.8216H76.3771L74.1963 16.2664H73.3354ZM73.3354 9.55656V14.345H75.2192C75.4622 14.345 75.6272 14.3032 75.7202 14.2197C75.8102 14.1362 75.8551 13.9751 75.8551 13.7334V10.1682C75.8551 9.92651 75.8102 9.76541 75.7202 9.68187C75.6302 9.59833 75.4622 9.55656 75.2192 9.55656H73.3354Z" fill="black"/>
<path d="M86.3691 21.8216L85.8231 18.862H82.6884L82.1874 21.8216H79.5776L82.4604 7.57263H85.9791L88.9999 21.8216H86.3691ZM83.0333 16.8959H85.4631L84.2152 10.0758L83.0333 16.8959Z" fill="black"/>
</svg>
