<svg width="18" height="19" viewBox="0 0 18 19" fill="none" xmlns="http://www.w3.org/2000/svg">
<path d="M17.7449 6.23159C18.2806 4.59016 17.9584 1.31555 16.9204 0.106619C16.7844 -0.0519625 16.5312 -0.0293079 16.4182 0.14575L15.1397 2.12082C14.8237 2.51624 14.2545 2.60686 13.8256 2.33089C12.4382 1.43706 10.7809 0.918065 9.00014 0.918065C7.21938 0.918065 5.56208 1.43706 4.17472 2.33089C3.74784 2.60686 3.17866 2.51418 2.86059 2.12082L1.58205 0.14575C1.46905 -0.0293079 1.21585 -0.049903 1.07983 0.106619C0.0419281 1.31761 -0.280325 4.59222 0.255368 6.23159C0.433235 6.77736 0.481364 7.35402 0.376736 7.91421C0.272109 8.47027 0.167481 9.14167 0.167481 9.60918C0.167481 14.4099 4.1224 18.3003 8.99805 18.3003C13.8758 18.3003 17.8286 14.4078 17.8286 9.60918C17.8286 9.14167 17.724 8.47027 17.6194 7.91421C17.5168 7.35402 17.567 6.77736 17.7449 6.23159Z" fill="#27C4E5"/>
</svg>
